<?xml version="1.0" encoding="UTF-8"?>
<svg version="1.1" xmlns="http://www.w3.org/2000/svg" width="949" height="953">
<path d="M0 0 C2.1982756 2.74156322 3.69567776 5.302247 4.99853516 8.56103516 C5.36453827 9.46789063 5.73054138 10.37474609 6.1076355 11.30908203 C6.49750641 12.29247559 6.88737732 13.27586914 7.2890625 14.2890625 C7.70463409 15.32321289 8.12020569 16.35736328 8.54837036 17.42285156 C9.91271391 20.82140439 11.26878329 24.22319692 12.625 27.625 C13.57520986 29.99553518 14.52606271 32.36581272 15.47753906 34.73583984 C17.4063876 39.54167934 19.33259918 44.34856221 21.25683594 49.15625 C24.72224369 57.80907089 28.21878919 66.44917409 31.72113037 75.08709717 C33.10160677 78.49230505 34.4804461 81.8981748 35.85928345 85.30404663 C36.88586312 87.83980018 37.91263807 90.37547458 38.93945312 92.91113281 C42.10502444 100.72870125 45.26917669 108.54684409 48.43347168 116.3649292 C50.20559306 120.74330829 51.97780078 125.12165242 53.75 129.5 C54.45833375 131.24999983 55.16666708 132.99999983 55.875 134.75 C56.225625 135.61625 56.57625 136.4825 56.9375 137.375 C58 140 59.0625 142.625 60.125 145.25 C60.6508242 146.54908043 60.6508242 146.54908043 61.18727112 147.87440491 C61.89639486 149.62637743 62.60549108 151.3783611 63.31455994 153.13035583 C65.07307593 157.4752674 66.83205221 161.81999143 68.59204102 166.16430664 C71.92714767 174.3980439 75.25715972 182.63375342 78.57223511 190.87557983 C80.14606349 194.78761287 81.72234627 198.69865478 83.29882812 202.60961914 C84.05282776 204.48217013 84.80561186 206.35521105 85.55712891 208.22875977 C86.59625257 210.81910329 87.63947398 213.40776085 88.68359375 215.99609375 C89.14486916 217.15074379 89.14486916 217.15074379 89.61546326 218.32872009 C90.87829371 221.44930152 92.1257062 224.18855931 94 227 C104.83769026 200.4930244 115.64449443 173.97587522 126.25 147.375 C132.71833299 131.15357306 139.25892907 114.96466788 145.89135742 98.80966187 C152.73918239 82.12705919 159.50579737 65.41218463 166.25 48.6875 C166.74939822 47.44928931 167.24879802 46.21107926 167.74819946 44.97286987 C168.7102275 42.58724837 169.67200104 40.20152422 170.63349915 37.81568909 C171.54137238 35.5633107 172.44995033 33.31121622 173.35929871 31.05943298 C175.24065365 26.39577717 177.11345646 21.73019398 178.93164062 17.04150391 C179.35023346 15.96857841 179.35023346 15.96857841 179.77728271 14.87397766 C180.48056987 13.0650728 181.17576779 11.25302825 181.87011719 9.44067383 C183 7 183 7 185 6 C191.1233067 20.27920089 197.09066579 34.60427131 202.83325195 49.04101562 C207.82448741 61.58663093 212.87802788 74.10676459 217.9375 86.625 C218.84538992 88.8718212 219.75326742 91.11864741 220.66113281 93.36547852 C222.51430312 97.95157119 224.36770058 102.53757201 226.22119141 107.12353516 C228.93386609 113.83575888 231.64493455 120.54863041 234.35546875 127.26171875 C235.01001289 128.88279541 235.01001289 128.88279541 235.67778015 130.53662109 C236.55546285 132.71034659 237.43314332 134.88407299 238.31082153 137.05780029 C245.36983099 154.54017166 252.43283675 172.02092328 259.5 189.5 C268.78746447 212.4705043 278.06579279 235.44469358 287.34277344 258.41943359 C289.98093597 264.95287372 292.6193355 271.48621812 295.2578125 278.01953125 C295.69053467 279.09102417 296.12325684 280.16251709 296.5690918 281.26647949 C297.87939049 284.51098796 299.18969423 287.75549439 300.5 291 C305.32982978 302.95935347 310.15965169 314.91871009 314.98883057 326.87832642 C323.82194982 348.75381045 332.65690516 370.6285464 341.5 392.5 C348.12859776 408.89438125 354.753481 425.29025839 361.375 441.6875 C361.81100525 442.76720062 362.2470105 443.84690125 362.69622803 444.95932007 C366.24205169 453.74011317 369.78765595 462.52099486 373.33325195 471.30187988 C376.43039928 478.97212779 379.52763253 486.64234099 382.625 494.3125 C383.06116638 495.39260345 383.49733276 496.47270691 383.94671631 497.58554077 C390.12778998 512.89171739 396.31244543 528.19644225 402.5 543.5 C411.78746447 566.4705043 421.06579279 589.44469358 430.34277344 612.41943359 C432.98093597 618.95287372 435.6193355 625.48621812 438.2578125 632.01953125 C438.69053467 633.09102417 439.12325684 634.16251709 439.5690918 635.26647949 C440.87939049 638.51098796 442.18969423 641.75549439 443.5 645 C448.32982978 656.95935347 453.15965169 668.91871009 457.98883057 680.87832642 C466.82194982 702.75381045 475.65690516 724.6285464 484.5 746.5 C491.12859776 762.89438125 497.753481 779.29025839 504.375 795.6875 C505.02900787 797.30705093 505.02900787 797.30705093 505.69622803 798.95932007 C509.24205169 807.74011317 512.78765595 816.52099486 516.33325195 825.30187988 C518.99083603 831.88352633 521.64849098 838.46514414 524.3062439 845.04672241 C525.18340584 847.21893289 526.06054219 849.39115371 526.93765259 851.56338501 C532.08027272 864.29938361 537.22596811 877.03412865 542.37799072 889.7663269 C545.52776857 897.55095453 548.67238095 905.33765929 551.81536865 913.12503052 C553.85394296 918.17298064 555.90166582 923.21704991 557.96018982 928.25689697 C559.12871135 931.12034339 560.29155637 933.98607072 561.45309448 936.85235596 C561.97807761 938.14365402 562.50578359 939.43384895 563.03640747 940.72283936 C563.74472057 942.44391013 564.44301424 944.1690947 565.140625 945.89453125 C565.52766602 946.84175049 565.91470703 947.78896973 566.31347656 948.76489258 C567 951 567 951 566 953 C563.30818725 950.337658 560.62237853 947.66933333 557.9375 945 C556.80924805 943.88431641 556.80924805 943.88431641 555.65820312 942.74609375 C552.17419405 939.27716697 548.76730169 935.79578256 545.56640625 932.0625 C541.30798089 927.11240981 536.6491948 922.57980383 532 918 C526.74992084 912.82828024 521.62928228 907.6496079 516.83203125 902.0546875 C513.08310793 897.8501381 509.0115541 893.95168016 505 890 C499.74992084 884.82828024 494.62928228 879.6496079 489.83203125 874.0546875 C486.08310793 869.8501381 482.0115541 865.95168016 478 862 C468.37089205 852.51461008 468.37089205 852.51461008 464.53125 848.03125 C460.13857072 842.90817206 455.30278441 838.23485253 450.5 833.5 C445.07925237 828.1559249 439.76647975 822.81934589 434.81445312 817.03710938 C431.07335193 812.83692794 427.00549456 808.94571106 423 805 C417.74992084 799.82828024 412.62928228 794.6496079 407.83203125 789.0546875 C404.08310793 784.8501381 400.0115541 780.95168016 396 777 C390.74992084 771.82828024 385.62928228 766.6496079 380.83203125 761.0546875 C377.08310793 756.8501381 373.0115541 752.95168016 369 749 C363.74992084 743.82828024 358.62928228 738.6496079 353.83203125 733.0546875 C350.08310793 728.8501381 346.0115541 724.95168016 342 721 C336.74992084 715.82828024 331.62928228 710.6496079 326.83203125 705.0546875 C323.08310793 700.8501381 319.0115541 696.95168016 315 693 C309.74992084 687.82828024 304.62928228 682.6496079 299.83203125 677.0546875 C296.08310793 672.8501381 292.0115541 668.95168016 288 665 C282.74992084 659.82828024 277.62928228 654.6496079 272.83203125 649.0546875 C269.08310793 644.8501381 265.0115541 640.95168016 261 637 C255.74992084 631.82828024 250.62928228 626.6496079 245.83203125 621.0546875 C242.08310793 616.8501381 238.0115541 612.95168016 234 609 C228.74992084 603.82828024 223.62928228 598.6496079 218.83203125 593.0546875 C215.08310793 588.8501381 211.0115541 584.95168016 207 581 C197.37089205 571.51461008 197.37089205 571.51461008 193.53125 567.03125 C189.13857072 561.90817206 184.30278441 557.23485253 179.5 552.5 C174.07925237 547.1559249 168.76647975 541.81934589 163.81445312 536.03710938 C160.07335193 531.83692794 156.00549456 527.94571106 152 524 C146.74992084 518.82828024 141.62928228 513.6496079 136.83203125 508.0546875 C133.08310793 503.8501381 129.0115541 499.95168016 125 496 C119.74071396 490.81921077 114.60604803 485.63241331 109.80029297 480.02734375 C106.23458562 476.01193368 102.37823631 472.27576486 98.5625 468.5 C97.73556641 467.67757813 96.90863281 466.85515625 96.05664062 466.0078125 C94.04005041 464.00287887 92.02114764 462.00033747 90 460 C86.07797505 461.80013807 83.68854215 464.2996502 80.875 467.5 C74.95101806 474.09029977 68.72464977 480.34192991 62.40771484 486.5546875 C59.00823319 489.91583762 55.69497349 493.28817437 52.58203125 496.91796875 C47.52351376 502.79988155 41.90563912 508.13772862 36.3828125 513.578125 C32.64500043 517.28185368 28.9552513 520.97071306 25.53125 524.96875 C20.30115149 531.06849018 14.45584983 536.58595852 8.73828125 542.22265625 C4.24909493 546.67297515 -0.07462624 551.16277196 -4.18554688 555.96289062 C-8.73797641 561.07396059 -13.74324674 565.77692963 -18.6171875 570.578125 C-22.36541938 574.29217847 -26.06413637 577.99283352 -29.5 582 C-34.52425481 587.85966955 -40.12241912 593.16536808 -45.6171875 598.578125 C-49.36541938 602.29217847 -53.06413637 605.99283352 -56.5 610 C-61.52425481 615.85966955 -67.12241912 621.16536808 -72.6171875 626.578125 C-76.36541938 630.29217847 -80.06413637 633.99283352 -83.5 638 C-88.52425481 643.85966955 -94.12241912 649.16536808 -99.6171875 654.578125 C-103.36541938 658.29217847 -107.06413637 661.99283352 -110.5 666 C-115.52425481 671.85966955 -121.12241912 677.16536808 -126.6171875 682.578125 C-130.36541938 686.29217847 -134.06413637 689.99283352 -137.5 694 C-142.52425481 699.85966955 -148.12241912 705.16536808 -153.6171875 710.578125 C-157.36541938 714.29217847 -161.06413637 717.99283352 -164.5 722 C-169.52425481 727.85966955 -175.12241912 733.16536808 -180.6171875 738.578125 C-184.35499957 742.28185368 -188.0447487 745.97071306 -191.46875 749.96875 C-196.69884851 756.06849018 -202.54415017 761.58595852 -208.26171875 767.22265625 C-212.75090507 771.67297515 -217.07462624 776.16277196 -221.18554688 780.96289062 C-225.73797641 786.07396059 -230.74324674 790.77692963 -235.6171875 795.578125 C-239.36541938 799.29217847 -243.06413637 802.99283352 -246.5 807 C-251.52425481 812.85966955 -257.12241912 818.16536808 -262.6171875 823.578125 C-266.36541938 827.29217847 -270.06413637 830.99283352 -273.5 835 C-278.52425481 840.85966955 -284.12241912 846.16536808 -289.6171875 851.578125 C-293.36541938 855.29217847 -297.06413637 858.99283352 -300.5 863 C-305.52425481 868.85966955 -311.12241912 874.16536808 -316.6171875 879.578125 C-320.36541938 883.29217847 -324.06413637 886.99283352 -327.5 891 C-332.52425481 896.85966955 -338.12241912 902.16536808 -343.6171875 907.578125 C-347.97730535 911.89848494 -352.16008372 916.26939517 -356.15478516 920.92773438 C-359.97442875 925.2173791 -364.10809437 929.20956004 -368.1875 933.25 C-369.07630859 934.13429688 -369.96511719 935.01859375 -370.88085938 935.9296875 C-372.5264254 937.56659916 -374.17302431 939.20247368 -375.82104492 940.83691406 C-377.88559365 942.88642687 -379.94427286 944.94164293 -382 947 C-381.39790913 942.2072277 -379.97870983 938.05772444 -378.10546875 933.640625 C-377.8066127 932.92063324 -377.50775665 932.20064148 -377.19984436 931.45883179 C-376.54660221 929.88612205 -375.89064179 928.31453927 -375.2322998 926.74395752 C-373.39954798 922.36914315 -371.58924155 917.98504572 -369.77734375 913.6015625 C-369.19709946 912.19945023 -369.19709946 912.19945023 -368.60513306 910.76901245 C-364.0581912 899.759113 -359.65710681 888.69141642 -355.25 877.625 C-348.4114405 860.46764486 -341.49529521 843.34405173 -334.5 826.25 C-328.80362543 812.32886074 -323.13019347 798.40108304 -317.56420898 784.42724609 C-313.10073018 773.22813994 -308.58384648 762.05085446 -304.0625 750.875 C-303.66068512 749.88170685 -303.25887024 748.8884137 -302.84487915 747.86502075 C-301.18077563 743.75137404 -299.51661836 739.63774909 -297.85231018 735.52418518 C-293.10473009 723.78903385 -288.36473625 712.05082107 -283.625 700.3125 C-282.74439059 698.1317522 -281.86377534 695.95100677 -280.9831543 693.77026367 C-278.3220098 687.18021336 -275.66099294 680.59011151 -273 674 C-269.45844459 665.22912174 -265.91681771 656.45827235 -262.375 647.6875 C-261.93883362 646.60739655 -261.50266724 645.52729309 -261.05328369 644.41445923 C-254.48276639 628.14390436 -247.90785085 611.87513178 -241.33044434 595.60736084 C-232.43295249 573.60102133 -223.54479518 551.59091503 -214.65722656 529.58056641 C-209.83529478 517.63899639 -205.01261093 505.69773008 -200.19006348 493.75640869 C-198.87930843 490.51078478 -197.56855845 487.26515883 -196.2578125 484.01953125 C-195.82509033 482.94803833 -195.39236816 481.87654541 -194.9465332 480.77258301 C-192.30124966 474.22234539 -189.65614333 467.67203624 -187.01116943 461.12167358 C-177.78863786 438.2817983 -168.56339123 415.44302791 -159.33044434 392.60736084 C-153.09178307 377.17715867 -146.85708333 361.74536007 -140.625 346.3125 C-140.18899475 345.23279938 -139.7529895 344.15309875 -139.30377197 343.04067993 C-136.20239416 335.36050194 -133.10117868 327.6802584 -130 320 C-126.45844459 311.22912174 -122.91681771 302.45827235 -119.375 293.6875 C-118.93883362 292.60739655 -118.50266724 291.52729309 -118.05328369 290.41445923 C-111.48276639 274.14390436 -104.90785085 257.87513178 -98.33044434 241.60736084 C-89.43295249 219.60102133 -80.54479518 197.59091503 -71.65722656 175.58056641 C-66.83529478 163.63899639 -62.01261093 151.69773008 -57.19006348 139.75640869 C-55.87930843 136.51078478 -54.56855845 133.26515883 -53.2578125 130.01953125 C-52.82509033 128.94803833 -52.39236816 127.87654541 -51.9465332 126.77258301 C-48.85737073 119.12321462 -45.76848665 111.47373385 -42.6796875 103.82421875 C-38.31765977 93.02156652 -33.95495547 82.21918771 -29.59179688 71.41699219 C-27.84287188 67.08700573 -26.09419664 62.75691852 -24.34570312 58.42675781 C-22.18227366 53.06909071 -20.01825002 47.71166393 -17.8538208 42.35440063 C-17.05084666 40.36666773 -16.24806337 38.37885771 -15.44549561 36.39096069 C-12.96947358 30.25827542 -10.48827102 24.12772576 -8 18 C-7.48826233 16.73829987 -7.48826233 16.73829987 -6.96618652 15.45111084 C-5.98818623 13.043029 -5.006493 10.63649061 -4.0234375 8.23046875 C-3.7310318 7.50974686 -3.4386261 6.78902496 -3.13735962 6.04646301 C-1.11513302 1.11513302 -1.11513302 1.11513302 0 0 Z " fill="#174DCD" transform="translate(382,0)"/>
<path d="M0 0 C2.15492789 2.6952693 3.65554973 5.20189211 4.93505859 8.40234375 C5.28833221 9.27737549 5.64160583 10.15240723 6.00558472 11.05395508 C6.57129684 12.48130981 6.57129684 12.48130981 7.1484375 13.9375 C7.75511765 15.44703247 7.75511765 15.44703247 8.37405396 16.98706055 C9.71318763 20.32253677 11.0439953 23.66127259 12.375 27 C13.31772821 29.3518156 14.26109783 31.70337418 15.20507812 34.0546875 C17.16753362 38.94431729 19.1272113 43.83504673 21.08496094 48.7265625 C25.10304631 58.75996293 29.15451809 68.77983521 33.20617676 78.79971313 C35.38645227 84.19265003 37.56419041 89.58661139 39.7421875 94.98046875 C40.61685407 97.14632481 41.49152856 99.31217767 42.36621094 101.47802734 C44.57388429 106.94473981 46.78138683 112.41152123 48.98883057 117.87832642 C57.82194982 139.75381045 66.65690516 161.6285464 75.5 183.5 C84.78746447 206.4705043 94.06579279 229.44469358 103.34277344 252.41943359 C105.98093597 258.95287372 108.6193355 265.48621812 111.2578125 272.01953125 C111.69053467 273.09102417 112.12325684 274.16251709 112.5690918 275.26647949 C113.87939049 278.51098796 115.18969423 281.75549439 116.5 285 C121.32982978 296.95935347 126.15965169 308.91871009 130.98883057 320.87832642 C139.82194982 342.75381045 148.65690516 364.6285464 157.5 386.5 C164.12859776 402.89438125 170.753481 419.29025839 177.375 435.6875 C177.81100525 436.76720062 178.2470105 437.84690125 178.69622803 438.95932007 C182.24205169 447.74011317 185.78765595 456.52099486 189.33325195 465.30187988 C192.43039928 472.97212779 195.52763253 480.64234099 198.625 488.3125 C199.06116638 489.39260345 199.49733276 490.47270691 199.94671631 491.58554077 C206.12778998 506.89171739 212.31244543 522.19644225 218.5 537.5 C227.78746447 560.4705043 237.06579279 583.44469358 246.34277344 606.41943359 C248.98093597 612.95287372 251.6193355 619.48621812 254.2578125 626.01953125 C254.69053467 627.09102417 255.12325684 628.16251709 255.5690918 629.26647949 C256.87939049 632.51098796 258.18969423 635.75549439 259.5 639 C264.32982978 650.95935347 269.15965169 662.91871009 273.98883057 674.87832642 C282.82194982 696.75381045 291.65690516 718.6285464 300.5 740.5 C307.12859776 756.89438125 313.753481 773.29025839 320.375 789.6875 C321.02900787 791.30705093 321.02900787 791.30705093 321.69622803 792.95932007 C325.24205169 801.74011317 328.78765595 810.52099486 332.33325195 819.30187988 C334.99083603 825.88352633 337.64849098 832.46514414 340.3062439 839.04672241 C341.18340584 841.21893289 342.06054219 843.39115371 342.93765259 845.56338501 C348.08027272 858.29938361 353.22596811 871.03412865 358.37799072 883.7663269 C361.52776857 891.55095453 364.67238095 899.33765929 367.81536865 907.12503052 C369.85394296 912.17298064 371.90166582 917.21704991 373.96018982 922.25689697 C375.12871135 925.12034339 376.29155637 927.98607072 377.45309448 930.85235596 C377.97807761 932.14365402 378.50578359 933.43384895 379.03640747 934.72283936 C379.74472057 936.44391013 380.44301424 938.1690947 381.140625 939.89453125 C381.52766602 940.84175049 381.91470703 941.78896973 382.31347656 942.76489258 C383 945 383 945 382 947 C379.30818725 944.337658 376.62237853 941.66933333 373.9375 939 C373.18533203 938.25621094 372.43316406 937.51242187 371.65820312 936.74609375 C368.17419405 933.27716697 364.76730169 929.79578256 361.56640625 926.0625 C357.30798089 921.11240981 352.6491948 916.57980383 348 912 C342.74992084 906.82828024 337.62928228 901.6496079 332.83203125 896.0546875 C329.08310793 891.8501381 325.0115541 887.95168016 321 884 C315.74992084 878.82828024 310.62928228 873.6496079 305.83203125 868.0546875 C302.08310793 863.8501381 298.0115541 859.95168016 294 856 C284.37089205 846.51461008 284.37089205 846.51461008 280.53125 842.03125 C276.13857072 836.90817206 271.30278441 832.23485253 266.5 827.5 C261.07925237 822.1559249 255.76647975 816.81934589 250.81445312 811.03710938 C247.07335193 806.83692794 243.00549456 802.94571106 239 799 C233.74992084 793.82828024 228.62928228 788.6496079 223.83203125 783.0546875 C220.08310793 778.8501381 216.0115541 774.95168016 212 771 C206.74992084 765.82828024 201.62928228 760.6496079 196.83203125 755.0546875 C193.08310793 750.8501381 189.0115541 746.95168016 185 743 C179.74992084 737.82828024 174.62928228 732.6496079 169.83203125 727.0546875 C166.08310793 722.8501381 162.0115541 718.95168016 158 715 C152.74992084 709.82828024 147.62928228 704.6496079 142.83203125 699.0546875 C139.08310793 694.8501381 135.0115541 690.95168016 131 687 C125.74992084 681.82828024 120.62928228 676.6496079 115.83203125 671.0546875 C112.08310793 666.8501381 108.0115541 662.95168016 104 659 C98.74992084 653.82828024 93.62928228 648.6496079 88.83203125 643.0546875 C85.08310793 638.8501381 81.0115541 634.95168016 77 631 C71.74992084 625.82828024 66.62928228 620.6496079 61.83203125 615.0546875 C58.08310793 610.8501381 54.0115541 606.95168016 50 603 C44.74992084 597.82828024 39.62928228 592.6496079 34.83203125 587.0546875 C31.08310793 582.8501381 27.0115541 578.95168016 23 575 C13.37089205 565.51461008 13.37089205 565.51461008 9.53125 561.03125 C5.13857072 555.90817206 0.30278441 551.23485253 -4.5 546.5 C-9.92074763 541.1559249 -15.23352025 535.81934589 -20.18554688 530.03710938 C-23.92664807 525.83692794 -27.99450544 521.94571106 -32 518 C-37.25007916 512.82828024 -42.37071772 507.6496079 -47.16796875 502.0546875 C-50.91689207 497.8501381 -54.9884459 493.95168016 -59 490 C-64.24905188 484.82929217 -69.37216124 479.65263073 -74.16845703 474.05859375 C-77.90395319 469.86001955 -81.94548583 465.95254939 -85.9375 462 C-86.81212891 461.12988281 -87.68675781 460.25976562 -88.58789062 459.36328125 C-90.72297449 457.23986451 -92.86037205 455.11883622 -95 453 C-93.49158187 449.44519997 -91.42366339 447.20440378 -88.67578125 444.515625 C-87.81146484 443.66226562 -86.94714844 442.80890625 -86.05664062 441.9296875 C-85.15107422 441.04539062 -84.24550781 440.16109375 -83.3125 439.25 C-77.95150682 433.99427723 -72.70392841 428.74989945 -67.82104492 423.04589844 C-63.26791828 417.9305745 -58.25932964 413.2256083 -53.3828125 408.421875 C-48.93693379 404.01653621 -44.65534601 399.55996978 -40.58154297 394.80859375 C-38.1965801 392.08123887 -35.64638099 389.53742117 -33.0625 387 C-32.56943359 386.51144531 -32.07636719 386.02289063 -31.56835938 385.51953125 C-30.38126771 384.34396475 -29.19099502 383.17161174 -28 382 C-30.40415375 373.00736385 -33.92745681 364.56752649 -37.48907471 355.9876709 C-39.50389123 351.13180177 -41.5010671 346.26867423 -43.5 341.40625 C-43.93365875 340.35226013 -44.3673175 339.29827026 -44.81411743 338.21234131 C-51.57529111 321.76014695 -58.20885701 305.25574361 -64.83984375 288.75073242 C-65.63207933 286.77913589 -66.42435177 284.8075542 -67.2166748 282.83599281 C-67.73751418 281.53990444 -68.2582666 280.24378111 -68.77893066 278.9476223 C-71.80928527 271.40569775 -74.86303494 263.8741168 -77.96377563 256.36080933 C-79.50811362 252.61737164 -81.04139592 248.86946056 -82.57342529 245.12097168 C-83.26578127 243.43647589 -83.96392248 241.75434448 -84.66827393 240.0748291 C-85.61911003 237.8069295 -86.54993637 235.53178118 -87.4765625 233.25390625 C-87.75226074 232.61209915 -88.02795898 231.97029205 -88.31201172 231.30903625 C-90.89801809 224.83466249 -89.4951876 219.64291499 -86.9453125 213.40625 C-86.28559448 211.77478027 -86.28559448 211.77478027 -85.61254883 210.11035156 C-85.12165771 208.91893555 -84.6307666 207.72751953 -84.125 206.5 C-83.59647327 205.20051069 -83.06875135 203.90069381 -82.54174805 202.60058594 C-81.36061365 199.68982507 -80.17503882 196.78092122 -78.98681641 193.87304688 C-76.83545506 188.60322936 -74.70399678 183.32544531 -72.57421875 178.046875 C-69.34356103 170.04146101 -66.10968816 162.03736307 -62.87109375 154.03515625 C-62.46210846 153.02459671 -62.05312317 152.01403717 -61.63174438 150.97285461 C-60.81675695 148.95920815 -60.00174465 146.94557176 -59.18670654 144.9319458 C-58.04377952 142.10816421 -56.90100642 139.2843204 -55.75830078 136.46044922 C-51.88503182 126.88880561 -48.01092149 117.31750291 -44.13609314 107.74649048 C-41.67641101 101.67094071 -39.21701094 95.59527682 -36.7578125 89.51953125 C-36.40619553 88.65082397 -36.05457855 87.7821167 -35.69230652 86.88708496 C-33.92771564 82.52744506 -32.16317245 78.16778587 -30.39868164 73.80810547 C-27.11017757 65.68305521 -23.82127022 57.55816894 -20.53091431 49.43386841 C-18.99408177 45.63916414 -17.45748185 41.8443657 -15.92089844 38.04956055 C-15.19559084 36.25849811 -14.47017209 34.46748069 -13.74462891 32.67651367 C-12.73180492 30.17638745 -11.71938537 27.67609776 -10.70703125 25.17578125 C-10.23192612 24.0034343 -10.23192612 24.0034343 -9.7472229 22.80740356 C-8.2237787 19.04386025 -6.71003787 15.27690981 -5.21630859 11.50146484 C-4.93824875 10.79998825 -4.6601889 10.09851166 -4.373703 9.3757782 C-3.62537058 7.48473025 -2.88031368 5.59238702 -2.13549805 3.69995117 C-1 1 -1 1 0 0 Z " fill="#A817CD" transform="translate(566,6)"/>
<path d="M0 0 C3.25468787 1.62734393 3.83833114 5.12474169 5.09765625 8.37109375 C5.40334534 9.14236603 5.70903442 9.91363831 6.02398682 10.70828247 C6.69059283 12.3923189 7.35405522 14.07760219 8.01480103 15.76394653 C9.44318607 19.40894752 10.88672417 23.04788654 12.32926941 26.68730164 C13.08526886 28.59512428 13.84047364 30.50326199 14.59492493 32.41169739 C18.44660418 42.15068473 22.37457589 51.85813997 26.3125 61.5625 C27.01329268 63.29145969 27.7139754 65.02046396 28.41455078 66.74951172 C29.48827542 69.39948025 30.56205511 72.04942629 31.63613892 74.69924927 C34.40822042 81.53812969 37.17752768 88.37812958 39.9453125 95.21875 C40.35956482 96.24239655 40.77381714 97.26604309 41.20062256 98.32070923 C43.25685298 103.40306834 45.31061464 108.486402 47.359375 113.57177734 C48.13792714 115.50361849 48.91657102 117.43542267 49.6953125 119.3671875 C50.06891907 120.29397308 50.44252563 121.22075867 50.82745361 122.17562866 C52.75502657 126.94822053 54.70141565 131.71178223 56.68791199 136.4601593 C57.45387563 138.29122643 58.21355522 140.12491853 58.97290039 141.95874023 C59.8317178 144.02869836 60.70227753 146.09384657 61.58764648 148.15258789 C61.94673096 149.02391357 62.30581543 149.89523926 62.67578125 150.79296875 C62.98427002 151.5202417 63.29275879 152.24751465 63.6105957 152.99682617 C64.13611962 155.70022663 63.49894593 156.72594349 62 159 C60.50708008 160.70410156 60.50708008 160.70410156 58.76953125 162.390625 C57.81143555 163.33228516 57.81143555 163.33228516 56.83398438 164.29296875 C55.83334961 165.26169922 55.83334961 165.26169922 54.8125 166.25 C50.94756793 170.01109807 47.14805732 173.76229862 43.63671875 177.859375 C38.55724695 183.75922779 32.92512083 189.11853769 27.3828125 194.578125 C22.98778893 198.93307237 18.76449247 203.33871823 14.73779297 208.03515625 C11.51089281 211.68366602 8.02585893 215.07783381 4.5625 218.5 C3.83095703 219.22703125 3.09941406 219.9540625 2.34570312 220.703125 C0.56610176 222.47109499 -1.21580918 224.23666378 -3 226 C-6.34454495 224.42363695 -8.16926317 222.90540555 -10.5625 220.0625 C-16.10351326 213.72594895 -22.08847845 207.85745381 -28.08422852 201.95336914 C-31.66077974 198.41404705 -35.17002246 194.87650067 -38.4453125 191.0546875 C-42.77214719 186.0148728 -47.52147989 181.4093897 -52.25 176.75 C-54.02838526 174.99716625 -55.80452196 173.24204748 -57.578125 171.484375 C-58.74456543 170.33533691 -58.74456543 170.33533691 -59.93457031 169.16308594 C-63.779171 165.13670744 -63.779171 165.13670744 -65 163 C-64.80962784 158.0829748 -62.19305476 153.21484549 -60.34375 148.70703125 C-59.96983124 147.78550262 -59.59591248 146.863974 -59.21066284 145.91452026 C-57.97784084 142.87884275 -56.73889816 139.84570222 -55.5 136.8125 C-54.63448412 134.68418126 -53.76941828 132.55567946 -52.90478516 130.42700195 C-51.13157457 126.06281533 -49.35620094 121.69951856 -47.57910156 117.33691406 C-44.17568633 108.97905212 -40.7925808 100.61300312 -37.40997314 92.2467041 C-35.67565595 87.9582144 -33.93928989 83.67055443 -32.203125 79.3828125 C-29.31649264 72.25309569 -26.43129276 65.12280052 -23.546875 57.9921875 C-15.72269041 38.65130815 -7.88787405 19.31501194 0 0 Z " fill="#0000C2" transform="translate(475,231)"/>
</svg>
